<svg width="179" height="214" viewBox="0 0 179 214" fill="none" xmlns="http://www.w3.org/2000/svg">
<rect x="0.675781" y="0.19043" width="177.918" height="175.412" rx="5" fill="white"/>
<path d="M92.1141 209.749C90.9181 211.432 88.4191 211.432 87.2231 209.749L54.0419 163.053C52.6305 161.067 54.0507 158.316 56.4874 158.316L122.85 158.316C125.287 158.316 126.707 161.067 125.295 163.053L92.1141 209.749Z" fill="white"/>
<path d="M83.8602 98.756V71.54L67.4385 98.756H83.8602Z" fill="#5E7584"/>
<path d="M89.6757 129.852C119.874 129.852 144.351 105.483 144.351 75.4279C144.351 45.373 119.874 21 89.6757 21C59.4776 21 35 45.3689 35 75.4279C35 105.487 59.4817 129.852 89.6757 129.852ZM99.4965 106.771C101.633 108.824 104.49 110.008 107.482 110.008C110.475 110.008 113.273 108.824 115.389 106.771C117.526 104.643 118.721 101.8 118.721 98.8217C118.721 95.843 117.53 93.0576 115.389 90.9511C113.269 88.824 110.471 87.635 107.482 87.635C106.643 87.635 105.816 87.7666 105.023 87.923V83.8786C105.837 83.7429 106.66 83.6606 107.482 83.6606C111.533 83.6606 115.335 85.2446 118.266 88.0875C121.122 91.0087 122.713 94.7732 122.713 98.8217C122.713 102.87 121.122 106.692 118.266 109.535C115.331 112.399 111.529 113.979 107.482 113.979C103.436 113.979 99.5751 112.395 96.6983 109.535C94.8631 107.709 93.6189 105.446 92.9121 103.006L92.8625 102.706H87.8529V113.691L83.8601 119.718V102.706H62.7843V98.7518L83.1988 64.9077H87.8529V98.7518H92.2591C92.2756 94.3412 93.7223 90.9799 96.1692 86.8409C98.7608 82.6032 102.886 76.8391 110.152 67.6313H115.203C109.28 75.107 105.213 80.4761 102.431 84.5246C101.295 86.162 100.369 87.6309 99.6288 88.8939C96.7727 93.5842 96.2436 96.1063 96.2436 98.8176C96.2436 101.792 97.434 104.635 99.4965 106.766V106.771ZM87.2495 37.2967C90.1263 34.4331 93.9868 32.8533 98.0333 32.8533C102.08 32.8533 105.887 34.4373 108.817 37.2967C111.673 40.1397 113.265 43.9824 113.265 48.0103C113.265 52.4537 111.806 55.8274 109.272 59.987C106.755 64.2247 102.555 69.9888 95.3673 79.1966H90.2751C90.6181 78.7975 100.385 66.1296 103.022 62.3362C103.022 62.3321 103.031 62.328 103.031 62.3239C104.147 60.6658 105.093 59.2011 105.887 57.9381C108.685 53.2478 109.272 50.7257 109.272 48.0144C109.272 45.0398 108.081 42.1968 105.94 40.0656C103.82 38.0126 101.022 36.8277 98.0333 36.8277C95.0449 36.8277 92.1888 38.0126 90.0477 40.0656C87.9852 42.1927 86.7948 45.0357 86.7948 48.0144C86.7948 50.9931 87.9315 53.7785 90.0477 55.9056C92.1847 58.0162 95.0408 59.2011 98.0333 59.2011C98.8517 59.2011 99.6329 59.0695 100.443 58.9173V62.9616C99.6536 63.0933 98.8517 63.1755 98.0333 63.1755C93.9827 63.1755 90.1263 61.5915 87.2495 58.7486C84.3933 55.8274 82.802 52.0629 82.802 48.0144C82.802 43.9659 84.3933 40.1438 87.2495 37.3008V37.2967ZM68.0088 41.987H72.0016V76.0491L68.0088 82.6608V46.8295L58.8907 53.1202L56.638 49.8041L68.0088 41.987Z" fill="#5E7584"/>
<path d="M84.7322 136.348H92.2424C93.0443 136.348 93.6519 136.649 94.0735 137.245C94.491 137.842 94.7018 138.533 94.7018 139.31H94.8919L94.863 136.184H84.728V136.348H84.7322Z" fill="#5E7584"/>
<path d="M57.8696 138.454C57.0595 137.665 56.1543 137.06 55.154 136.632C54.1537 136.208 53.1245 135.994 52.0664 135.994C51.0083 135.994 49.9501 136.208 48.9375 136.632C47.9248 137.06 47.0113 137.66 46.1929 138.438C45.3745 139.216 44.7173 140.236 44.2255 141.495C43.7336 142.754 43.4897 144.145 43.4897 145.667C43.4897 147.189 43.7295 148.576 44.2131 149.826C44.6967 151.077 45.3332 152.097 46.1227 152.883C46.9121 153.669 47.7925 154.278 48.7597 154.706C49.7228 155.134 50.7189 155.344 51.7357 155.344H52.3929C53.0667 155.344 53.7735 155.224 54.5092 154.99C55.2449 154.755 55.9724 154.373 56.6957 153.846C57.4149 153.319 58.0597 152.686 58.6343 151.941C59.2088 151.196 59.6717 150.283 60.0272 149.197C60.3827 148.111 60.5604 146.93 60.5604 145.663C60.5604 144.157 60.3165 142.779 59.8247 141.516C59.3328 140.257 58.6797 139.232 57.8696 138.442V138.454ZM57.1339 150.415C56.5965 151.875 55.8732 153.036 54.9639 153.895C54.0545 154.755 53.0791 155.187 52.0416 155.187C51.0041 155.187 49.9708 154.702 49.0491 153.735C48.1315 152.764 47.4123 151.55 46.8915 150.09C46.3707 148.633 46.1144 147.169 46.1144 145.7C46.1144 143.959 46.3789 142.359 46.908 140.902C47.4371 139.442 48.1521 138.294 49.0532 137.451C49.9543 136.607 50.9463 136.188 52.0292 136.188C53.1121 136.188 54.1083 136.607 55.0217 137.451C55.9311 138.294 56.6461 139.442 57.1669 140.89C57.6877 142.342 57.944 143.943 57.944 145.704C57.944 147.465 57.6753 148.962 57.138 150.419L57.1339 150.415Z" fill="#5E7584"/>
<path d="M72.4976 154.809C71.6048 154.809 70.7946 154.62 70.0672 154.237C69.3397 153.854 68.7362 153.357 68.265 152.743C67.7897 152.126 67.3929 151.41 67.0622 150.596C66.7357 149.781 66.5042 148.967 66.3678 148.148C66.2314 147.333 66.1612 146.506 66.1612 145.675C66.1612 144.387 66.2728 143.194 66.5042 142.087C66.7316 140.981 67.0788 139.981 67.5417 139.084C68.0046 138.187 68.6412 137.479 69.4513 136.965C70.2614 136.447 71.2038 136.192 72.2785 136.192C72.9894 136.192 73.6218 136.282 74.1757 136.463C74.7296 136.644 75.1677 136.895 75.486 137.212C75.8042 137.529 76.0522 137.887 76.2217 138.286C76.3953 138.685 76.4738 139.105 76.4532 139.549C76.4366 139.993 76.3333 140.425 76.1514 140.841L76.4242 140.977L78.1726 137.36L78.0362 137.253C76.7632 136.365 74.742 135.92 71.9726 135.92C71.2452 135.92 70.5012 136.027 69.7448 136.245C68.9884 136.463 68.2278 136.825 67.4632 137.331C66.6985 137.837 66.0248 138.459 65.442 139.195C64.8592 139.927 64.3797 140.861 64.0077 141.997C63.6357 143.133 63.4456 144.375 63.4456 145.737C63.4456 147.099 63.7018 148.44 64.2102 149.666C64.7186 150.888 65.38 151.912 66.1901 152.739C67.0002 153.566 67.9178 154.212 68.947 154.681C69.9762 155.154 71.0096 155.389 72.047 155.389C73.3036 155.389 74.5105 155.183 75.6637 154.776C76.8169 154.369 77.8172 153.784 78.6562 153.023L78.5198 152.834C76.974 154.159 74.961 154.817 72.4852 154.817L72.4976 154.809Z" fill="#5E7584"/>
<path d="M94.2098 154.101C93.7552 154.718 93.1352 155.027 92.354 155.027H84.9264V147.333C84.9264 146.843 85.1082 146.411 85.472 146.041C85.8357 145.671 86.2656 145.486 86.7574 145.486H89.9277C90.5105 145.502 90.9652 145.691 91.2917 146.041C91.6182 146.391 91.7918 146.905 91.8125 147.576H92.0564V143.198H91.8125C91.7753 144.577 91.1553 145.264 89.9566 145.264H86.7616C86.2697 145.264 85.844 145.083 85.4761 144.72C85.1124 144.358 84.9305 143.922 84.9305 143.416V137.841C84.9305 137.352 84.761 136.953 84.4262 136.644C84.0873 136.336 83.6657 136.183 83.1573 136.183H80.698V136.348C81.3552 136.348 81.8594 136.496 82.2149 136.796C82.5704 137.097 82.7481 137.516 82.7481 138.059V142.408C82.7481 142.898 82.839 143.334 83.0209 143.713C83.2028 144.095 83.4466 144.391 83.7566 144.609C84.0666 144.827 84.3766 144.996 84.6866 145.111C84.9966 145.231 85.3149 145.305 85.6414 145.342C85.658 145.342 85.6704 145.35 85.6704 145.371C85.6704 145.391 85.6621 145.399 85.6414 145.399C85.348 145.436 85.0545 145.515 84.7528 145.63C84.451 145.749 84.141 145.914 83.8228 146.132C83.5045 146.35 83.2441 146.654 83.0457 147.041C82.8432 147.432 82.744 147.88 82.744 148.386V153.307C82.744 154.414 82.062 154.986 80.6938 155.019V155.183H95.115V151.949H94.9249C94.9084 152.764 94.6686 153.48 94.214 154.097L94.2098 154.101Z" fill="#5E7584"/>
<path d="M114.955 154.249C114.6 153.842 114.323 153.418 114.12 152.986C113.537 151.698 111.161 146.099 106.99 136.183H103.712V136.484H103.944C103.973 136.484 104.014 136.488 104.08 136.496C104.142 136.504 104.192 136.512 104.229 136.525C104.266 136.533 104.316 136.554 104.378 136.578C104.44 136.607 104.498 136.64 104.543 136.685C104.589 136.731 104.634 136.784 104.68 136.85C104.725 136.912 104.775 136.99 104.828 137.08C104.903 137.224 104.994 137.434 105.101 137.706L98.9301 152.85C98.8185 153.122 98.7234 153.34 98.6449 153.504C98.5664 153.669 98.4424 153.875 98.2894 154.13C98.1324 154.385 97.9464 154.574 97.7273 154.702C97.5082 154.829 97.2726 154.891 97.0164 154.891V155.191H100.294V154.891C99.856 154.891 99.5418 154.772 99.3517 154.537C99.1616 154.303 99.0748 154.043 99.0913 153.764C99.1078 153.484 99.174 153.208 99.2814 152.933C99.3889 152.645 100.137 150.793 101.522 147.387H109.168C110.462 150.505 111.152 152.188 111.243 152.443C111.917 154.072 111.735 154.891 110.698 154.891V155.191H116.05V154.891C115.666 154.875 115.298 154.661 114.943 154.253L114.955 154.249ZM101.666 147.057C102.795 144.284 104.014 141.277 105.324 138.031L105.87 139.388C106.234 140.277 106.726 141.47 107.346 142.964C107.966 144.457 108.528 145.823 109.04 147.057H101.666Z" fill="#5E7584"/>
<path d="M130.261 136.377C131.588 136.414 132.282 137.002 132.336 138.146V150.324L122.011 136.188H117.832V136.352C119.142 136.389 119.824 136.977 119.882 138.117V153.044C119.882 153.64 119.704 154.118 119.349 154.471C118.993 154.825 118.489 155.01 117.832 155.031V155.195H122.176V155.031C121.519 155.014 121.014 154.825 120.659 154.471C120.304 154.118 120.126 153.632 120.126 153.019V138.175L132.36 155.195H132.604V138.257C132.604 137.023 133.286 136.389 134.654 136.352V136.188H130.257V136.377H130.261Z" fill="#5E7584"/>
</svg>
