<svg xmlns="http://www.w3.org/2000/svg" width="11" height="19" viewBox="0 0 11 19" fill="none">
<path d="M5.2476 2.8875L1.9426 6.1925C1.88458 6.25061 1.81567 6.29672 1.73982 6.3282C1.66397 6.35968 1.58267 6.37592 1.50055 6.37597C1.41842 6.37603 1.33709 6.35991 1.2612 6.32854C1.18531 6.29717 1.11634 6.25115 1.05823 6.19313C1.00012 6.1351 0.954007 6.06619 0.922527 5.99034C0.891046 5.9145 0.874814 5.83319 0.874756 5.75107C0.874698 5.66895 0.890816 5.58762 0.922189 5.51172C0.953562 5.43583 0.999576 5.36686 1.0576 5.30875L5.39385 0.975C5.45235 0.904772 5.52553 0.848228 5.60825 0.809353C5.69097 0.770478 5.78121 0.750217 5.8726 0.75H5.8751C5.95732 0.750017 6.03873 0.766257 6.11466 0.797788C6.19059 0.829319 6.25956 0.875522 6.3176 0.93375L6.3301 0.94625L10.6926 5.30875C10.7523 5.3664 10.7999 5.43537 10.8327 5.51162C10.8654 5.58787 10.8827 5.66989 10.8834 5.75287C10.8841 5.83586 10.8683 5.91816 10.8369 5.99497C10.8054 6.07178 10.759 6.14156 10.7004 6.20025C10.6417 6.25893 10.5719 6.30534 10.4951 6.33676C10.4183 6.36819 10.336 6.384 10.253 6.38328C10.17 6.38256 10.088 6.36532 10.0117 6.33256C9.93547 6.29981 9.86651 6.25219 9.80885 6.1925L6.49635 2.88125V17.625C6.49635 17.7908 6.43051 17.9497 6.3133 18.0669C6.19609 18.1842 6.03711 18.25 5.87135 18.25C5.70559 18.25 5.54662 18.1842 5.42941 18.0669C5.3122 17.9497 5.24635 17.7908 5.24635 17.625L5.2476 2.8875Z" fill="#F4E9D7"/>
</svg>